<mxfile host="app.diagrams.net" modified="2021-04-12T10:42:14.876Z" agent="5.0 (Windows NT 10.0; Win64; x64) AppleWebKit/537.36 (KHTML, like Gecko) Chrome/88.0.4324.150 Safari/537.36" etag="hCqm-Zu8C65gN2Cn51m0" version="14.5.10" type="github">
  <diagram id="6sHJqAay3R81GsYUR5Wr" name="Page-1">
    <mxGraphModel dx="1902" dy="1050" grid="1" gridSize="10" guides="1" tooltips="1" connect="1" arrows="1" fold="1" page="1" pageScale="1" pageWidth="850" pageHeight="1100" math="0" shadow="0">
      <root>
        <mxCell id="0" />
        <mxCell id="1" parent="0" />
        <mxCell id="Y9lrI2mmpuBww7B29OqC-3" value="" style="edgeStyle=orthogonalEdgeStyle;rounded=0;orthogonalLoop=1;jettySize=auto;html=1;" edge="1" parent="1" source="Y9lrI2mmpuBww7B29OqC-1" target="Y9lrI2mmpuBww7B29OqC-2">
          <mxGeometry relative="1" as="geometry" />
        </mxCell>
        <mxCell id="Y9lrI2mmpuBww7B29OqC-21" value="" style="edgeStyle=orthogonalEdgeStyle;rounded=0;orthogonalLoop=1;jettySize=auto;html=1;" edge="1" parent="1" source="Y9lrI2mmpuBww7B29OqC-20" target="Y9lrI2mmpuBww7B29OqC-1">
          <mxGeometry relative="1" as="geometry" />
        </mxCell>
        <mxCell id="Y9lrI2mmpuBww7B29OqC-23" value="" style="edgeStyle=orthogonalEdgeStyle;rounded=0;orthogonalLoop=1;jettySize=auto;html=1;" edge="1" parent="1" source="Y9lrI2mmpuBww7B29OqC-1" target="Y9lrI2mmpuBww7B29OqC-22">
          <mxGeometry relative="1" as="geometry" />
        </mxCell>
        <mxCell id="Y9lrI2mmpuBww7B29OqC-1" value="rule" style="rounded=1;whiteSpace=wrap;html=1;" vertex="1" parent="1">
          <mxGeometry x="40" y="320" width="90" height="40" as="geometry" />
        </mxCell>
        <mxCell id="Y9lrI2mmpuBww7B29OqC-5" value="" style="edgeStyle=orthogonalEdgeStyle;rounded=0;orthogonalLoop=1;jettySize=auto;html=1;" edge="1" parent="1" source="Y9lrI2mmpuBww7B29OqC-2" target="Y9lrI2mmpuBww7B29OqC-4">
          <mxGeometry relative="1" as="geometry" />
        </mxCell>
        <mxCell id="Y9lrI2mmpuBww7B29OqC-7" value="" style="edgeStyle=orthogonalEdgeStyle;rounded=0;orthogonalLoop=1;jettySize=auto;html=1;" edge="1" parent="1" source="Y9lrI2mmpuBww7B29OqC-2" target="Y9lrI2mmpuBww7B29OqC-6">
          <mxGeometry relative="1" as="geometry" />
        </mxCell>
        <mxCell id="Y9lrI2mmpuBww7B29OqC-2" value="Flowfilter" style="rounded=1;whiteSpace=wrap;html=1;" vertex="1" parent="1">
          <mxGeometry x="210" y="310" width="100" height="60" as="geometry" />
        </mxCell>
        <mxCell id="Y9lrI2mmpuBww7B29OqC-17" value="" style="edgeStyle=orthogonalEdgeStyle;rounded=0;orthogonalLoop=1;jettySize=auto;html=1;" edge="1" parent="1" source="Y9lrI2mmpuBww7B29OqC-4" target="Y9lrI2mmpuBww7B29OqC-16">
          <mxGeometry relative="1" as="geometry" />
        </mxCell>
        <mxCell id="Y9lrI2mmpuBww7B29OqC-19" value="" style="edgeStyle=orthogonalEdgeStyle;rounded=0;orthogonalLoop=1;jettySize=auto;html=1;" edge="1" parent="1" source="Y9lrI2mmpuBww7B29OqC-4" target="Y9lrI2mmpuBww7B29OqC-18">
          <mxGeometry relative="1" as="geometry" />
        </mxCell>
        <mxCell id="Y9lrI2mmpuBww7B29OqC-4" value="filter" style="whiteSpace=wrap;html=1;rounded=1;" vertex="1" parent="1">
          <mxGeometry x="320" y="410" width="120" height="60" as="geometry" />
        </mxCell>
        <mxCell id="Y9lrI2mmpuBww7B29OqC-9" value="" style="edgeStyle=orthogonalEdgeStyle;rounded=0;orthogonalLoop=1;jettySize=auto;html=1;" edge="1" parent="1" source="Y9lrI2mmpuBww7B29OqC-6" target="Y9lrI2mmpuBww7B29OqC-8">
          <mxGeometry relative="1" as="geometry" />
        </mxCell>
        <mxCell id="Y9lrI2mmpuBww7B29OqC-15" value="" style="edgeStyle=orthogonalEdgeStyle;rounded=0;orthogonalLoop=1;jettySize=auto;html=1;" edge="1" parent="1" source="Y9lrI2mmpuBww7B29OqC-6" target="Y9lrI2mmpuBww7B29OqC-14">
          <mxGeometry relative="1" as="geometry" />
        </mxCell>
        <mxCell id="Y9lrI2mmpuBww7B29OqC-6" value="protocolbindflowf" style="whiteSpace=wrap;html=1;rounded=1;" vertex="1" parent="1">
          <mxGeometry x="320" y="200" width="120" height="50" as="geometry" />
        </mxCell>
        <mxCell id="Y9lrI2mmpuBww7B29OqC-11" value="" style="edgeStyle=orthogonalEdgeStyle;rounded=0;orthogonalLoop=1;jettySize=auto;html=1;" edge="1" parent="1" source="Y9lrI2mmpuBww7B29OqC-8" target="Y9lrI2mmpuBww7B29OqC-10">
          <mxGeometry relative="1" as="geometry" />
        </mxCell>
        <mxCell id="Y9lrI2mmpuBww7B29OqC-8" value="L7 Filter" style="whiteSpace=wrap;html=1;rounded=1;" vertex="1" parent="1">
          <mxGeometry x="320" y="80" width="120" height="60" as="geometry" />
        </mxCell>
        <mxCell id="Y9lrI2mmpuBww7B29OqC-13" value="" style="edgeStyle=orthogonalEdgeStyle;rounded=0;orthogonalLoop=1;jettySize=auto;html=1;" edge="1" parent="1" source="Y9lrI2mmpuBww7B29OqC-10" target="Y9lrI2mmpuBww7B29OqC-12">
          <mxGeometry relative="1" as="geometry" />
        </mxCell>
        <mxCell id="Y9lrI2mmpuBww7B29OqC-10" value="Sub L7&amp;nbsp; filter name" style="rounded=1;whiteSpace=wrap;html=1;" vertex="1" parent="1">
          <mxGeometry x="510" y="80" width="120" height="60" as="geometry" />
        </mxCell>
        <mxCell id="Y9lrI2mmpuBww7B29OqC-12" value="URL" style="whiteSpace=wrap;html=1;rounded=1;fillColor=#fff2cc;strokeColor=#d6b656;" vertex="1" parent="1">
          <mxGeometry x="710" y="80" width="120" height="60" as="geometry" />
        </mxCell>
        <mxCell id="Y9lrI2mmpuBww7B29OqC-14" value="protocol&lt;br&gt;http/https" style="rounded=1;whiteSpace=wrap;html=1;" vertex="1" parent="1">
          <mxGeometry x="520" y="195" width="120" height="60" as="geometry" />
        </mxCell>
        <mxCell id="Y9lrI2mmpuBww7B29OqC-16" value="host" style="whiteSpace=wrap;html=1;rounded=1;fillColor=#fff2cc;strokeColor=#d6b656;" vertex="1" parent="1">
          <mxGeometry x="450" y="520" width="120" height="60" as="geometry" />
        </mxCell>
        <mxCell id="Y9lrI2mmpuBww7B29OqC-18" value="IP List" style="whiteSpace=wrap;html=1;rounded=1;fillColor=#fff2cc;strokeColor=#d6b656;" vertex="1" parent="1">
          <mxGeometry x="200" y="520" width="90" height="60" as="geometry" />
        </mxCell>
        <mxCell id="Y9lrI2mmpuBww7B29OqC-20" value="service" style="rounded=1;whiteSpace=wrap;html=1;" vertex="1" parent="1">
          <mxGeometry x="30" y="220" width="110" height="40" as="geometry" />
        </mxCell>
        <mxCell id="Y9lrI2mmpuBww7B29OqC-22" value="Policy" style="rounded=1;whiteSpace=wrap;html=1;" vertex="1" parent="1">
          <mxGeometry x="27.5" y="420" width="115" height="40" as="geometry" />
        </mxCell>
      </root>
    </mxGraphModel>
  </diagram>
</mxfile>
